<svg width="64" height="64" viewBox="0 0 64 64" fill="none" xmlns="http://www.w3.org/2000/svg">
<path d="M10.6667 48C9.20002 48 7.94491 47.4782 6.90135 46.4347C5.85602 45.3893 5.33335 44.1333 5.33335 42.6667V13.3333C5.33335 11.8667 5.85602 10.6107 6.90135 9.56533C7.94491 8.52178 9.20002 8 10.6667 8H53.3334C54.8 8 56.056 8.52178 57.1014 9.56533C58.1449 10.6107 58.6667 11.8667 58.6667 13.3333V42.6667C58.6667 44.1333 58.1449 45.3893 57.1014 46.4347C56.056 47.4782 54.8 48 53.3334 48H10.6667ZM5.33335 56C4.5778 56 3.94491 55.744 3.43469 55.232C2.92269 54.7218 2.66669 54.0889 2.66669 53.3333C2.66669 52.5778 2.92269 51.9449 3.43469 51.4347C3.94491 50.9227 4.5778 50.6667 5.33335 50.6667H58.6667C59.4222 50.6667 60.0551 50.9227 60.5654 51.4347C61.0774 51.9449 61.3334 52.5778 61.3334 53.3333C61.3334 54.0889 61.0774 54.7218 60.5654 55.232C60.0551 55.744 59.4222 56 58.6667 56H5.33335Z" fill="#F0F0F0"/>
<path d="M32 21.3331V30.4521C30.9975 29.8761 29.7603 29.6522 28.4484 30.1108C27.0193 30.6227 25.9207 31.8919 25.6648 33.3851C25.5464 34.0569 25.5907 34.7474 25.7937 35.3986C25.9968 36.0499 26.3529 36.6431 26.8321 37.1286C27.3114 37.6141 27.8999 37.9778 28.5485 38.1894C29.1971 38.4009 29.8869 38.4541 30.5602 38.3445C32.6506 38.0139 34.1331 36.0941 34.1331 33.9717V23.4662H36.2662C37.4394 23.4662 38.3993 22.5063 38.3993 21.3331C38.3993 20.1599 37.4394 19.2 36.2662 19.2H34.1331C32.9599 19.2 32 20.1599 32 21.3331Z" fill="#000080"/>
</svg>
