<svg width="40" height="40" viewBox="0 0 40 40" fill="none" xmlns="http://www.w3.org/2000/svg">
<path d="M10 13.75C10 13.4185 10.1317 13.1005 10.3661 12.8661C10.6005 12.6317 10.9185 12.5 11.25 12.5H28.75C29.0815 12.5 29.3995 12.6317 29.6339 12.8661C29.8683 13.1005 30 13.4185 30 13.75C30 14.0815 29.8683 14.3995 29.6339 14.6339C29.3995 14.8683 29.0815 15 28.75 15H11.25C10.9185 15 10.6005 14.8683 10.3661 14.6339C10.1317 14.3995 10 14.0815 10 13.75ZM10 26.25C10 25.9185 10.1317 25.6005 10.3661 25.3661C10.6005 25.1317 10.9185 25 11.25 25H28.75C29.0815 25 29.3995 25.1317 29.6339 25.3661C29.8683 25.6005 30 25.9185 30 26.25C30 26.5815 29.8683 26.8995 29.6339 27.1339C29.3995 27.3683 29.0815 27.5 28.75 27.5H11.25C10.9185 27.5 10.6005 27.3683 10.3661 27.1339C10.1317 26.8995 10 26.5815 10 26.25ZM12.5 17.5C11.837 17.5 11.2011 17.7634 10.7322 18.2322C10.2634 18.7011 10 19.337 10 20C10 20.663 10.2634 21.2989 10.7322 21.7678C11.2011 22.2366 11.837 22.5 12.5 22.5H27.5C28.163 22.5 28.7989 22.2366 29.2678 21.7678C29.7366 21.2989 30 20.663 30 20C30 19.337 29.7366 18.7011 29.2678 18.2322C28.7989 17.7634 28.163 17.5 27.5 17.5H12.5Z" fill="#808080"/>
<path d="M0 11.25C0 10.2554 0.395088 9.30161 1.09835 8.59835C1.80161 7.89509 2.75544 7.5 3.75 7.5H36.25C37.2446 7.5 38.1984 7.89509 38.9016 8.59835C39.6049 9.30161 40 10.2554 40 11.25V15C40 15.3315 39.8683 15.6495 39.6339 15.8839C39.3995 16.1183 39.0815 16.25 38.75 16.25C37.7554 16.25 36.8016 16.6451 36.0984 17.3483C35.3951 18.0516 35 19.0054 35 20C35 20.9946 35.3951 21.9484 36.0984 22.6517C36.8016 23.3549 37.7554 23.75 38.75 23.75C39.0815 23.75 39.3995 23.8817 39.6339 24.1161C39.8683 24.3505 40 24.6685 40 25V28.75C40 29.7446 39.6049 30.6984 38.9016 31.4017C38.1984 32.1049 37.2446 32.5 36.25 32.5H3.75C2.75544 32.5 1.80161 32.1049 1.09835 31.4017C0.395088 30.6984 0 29.7446 0 28.75L0 25C0 24.6685 0.131696 24.3505 0.366117 24.1161C0.600537 23.8817 0.918479 23.75 1.25 23.75C2.24456 23.75 3.19839 23.3549 3.90165 22.6517C4.60491 21.9484 5 20.9946 5 20C5 19.0054 4.60491 18.0516 3.90165 17.3483C3.19839 16.6451 2.24456 16.25 1.25 16.25C0.918479 16.25 0.600537 16.1183 0.366117 15.8839C0.131696 15.6495 0 15.3315 0 15V11.25ZM3.75 10C3.41848 10 3.10054 10.1317 2.86612 10.3661C2.6317 10.6005 2.5 10.9185 2.5 11.25V13.875C3.91286 14.1619 5.18309 14.9284 6.09547 16.0447C7.00785 17.1609 7.50627 18.5583 7.50627 20C7.50627 21.4417 7.00785 22.8391 6.09547 23.9553C5.18309 25.0716 3.91286 25.8381 2.5 26.125V28.75C2.5 29.0815 2.6317 29.3995 2.86612 29.6339C3.10054 29.8683 3.41848 30 3.75 30H36.25C36.5815 30 36.8995 29.8683 37.1339 29.6339C37.3683 29.3995 37.5 29.0815 37.5 28.75V26.125C36.0871 25.8381 34.8169 25.0716 33.9045 23.9553C32.9921 22.8391 32.4937 21.4417 32.4937 20C32.4937 18.5583 32.9921 17.1609 33.9045 16.0447C34.8169 14.9284 36.0871 14.1619 37.5 13.875V11.25C37.5 10.9185 37.3683 10.6005 37.1339 10.3661C36.8995 10.1317 36.5815 10 36.25 10H3.75Z" fill="#808080"/>
</svg>
